<svg xmlns="http://www.w3.org/2000/svg" xmlns:xlink="http://www.w3.org/1999/xlink" width="1080" zoomAndPan="magnify" viewBox="0 0 810 809.999993" height="1080" preserveAspectRatio="xMidYMid meet" version="1.0"><defs><g/><clipPath id="c3cbcd22c5"><path d="M 174.332031 468 L 635.582031 468 L 635.582031 696 L 174.332031 696 Z M 174.332031 468 " clip-rule="nonzero"/></clipPath></defs><path fill="#000000" d="M 499.148438 231.644531 C 506.789062 242.773438 512.863281 255.316406 517.007812 268.867188 C 521.050781 282.097656 523.246094 296.226562 523.246094 310.867188 C 523.246094 346.917969 510.082031 379.59375 488.796875 403.28125 C 467.363281 427.140625 437.707031 441.894531 404.910156 441.894531 C 372.113281 441.894531 342.457031 427.140625 321.019531 403.28125 C 299.738281 379.59375 286.574219 346.917969 286.574219 310.867188 C 286.574219 296.226562 288.765625 282.097656 292.8125 268.867188 C 297.003906 255.148438 303.179688 242.464844 310.953125 231.234375 L 310.941406 231.21875 C 312.113281 229.527344 313.992188 228.617188 315.902344 228.617188 L 493.914062 228.617188 C 496.152344 228.617188 498.105469 229.835938 499.148438 231.644531 Z M 505.5 272.355469 C 502.007812 260.925781 496.992188 250.273438 490.722656 240.6875 L 319.09375 240.6875 C 312.824219 250.273438 307.808594 260.925781 304.316406 272.355469 C 300.640625 284.386719 298.644531 297.335938 298.644531 310.867188 C 298.644531 343.851562 310.617188 373.671875 329.980469 395.21875 C 349.1875 416.601562 375.683594 429.824219 404.910156 429.824219 C 434.132812 429.824219 460.628906 416.601562 479.839844 395.21875 C 499.199219 373.671875 511.175781 343.851562 511.175781 310.867188 C 511.175781 297.335938 509.179688 284.386719 505.5 272.355469 Z M 505.5 272.355469 " fill-opacity="1" fill-rule="nonzero"/><path fill="#000000" d="M 496.835938 150.871094 L 496.835938 230.316406 L 313.207031 230.316406 L 313.207031 150.605469 L 410.160156 176.25 Z M 496.835938 150.871094 " fill-opacity="1" fill-rule="evenodd"/><path fill="#000000" d="M 403.972656 81.261719 L 564.5625 119.203125 L 410.003906 164.457031 L 245.554688 120.964844 Z M 403.972656 81.261719 " fill-opacity="1" fill-rule="evenodd"/><g clip-path="url(#c3cbcd22c5)"><path fill="#000000" d="M 346.652344 468.9375 L 287.578125 469.074219 C 225.25 469.257812 174.253906 520.074219 174.253906 582.402344 L 174.253906 695.730469 L 253.046875 695.730469 L 258.75 644.859375 L 264.457031 695.730469 L 545.449219 695.730469 L 551.152344 644.859375 L 556.859375 695.730469 L 635.652344 695.730469 L 635.652344 582.402344 C 635.652344 520.074219 584.65625 469.003906 522.324219 469.074219 L 463.164062 469.144531 L 404.992188 561.292969 Z M 346.652344 468.9375 " fill-opacity="1" fill-rule="evenodd"/></g><path fill="#000000" d="M 335.015625 405.945312 L 335.015625 468.933594 L 335.019531 469.015625 L 346.886719 468.933594 L 347.050781 469.457031 C 347.054688 469.285156 347.058594 469.109375 347.058594 468.933594 L 347.058594 418.019531 C 342.1875 407.957031 338.085938 420.214844 335.015625 405.945312 Z M 335.015625 405.945312 " fill-opacity="1" fill-rule="nonzero"/><path fill="#000000" d="M 475.167969 469.101562 L 475.164062 406.855469 C 472.117188 421.199219 468.03125 407.601562 463.171875 417.742188 L 463.175781 469.144531 Z M 475.167969 469.101562 " fill-opacity="1" fill-rule="nonzero"/><path fill="#000000" d="M 296.808594 347.179688 C 295.320312 335.734375 294.519531 323.589844 294.519531 311.015625 C 294.519531 298.269531 295.34375 285.96875 296.871094 274.386719 C 262.734375 259.679688 263.484375 361.394531 296.808594 347.179688 Z M 296.808594 347.179688 " fill-opacity="1" fill-rule="evenodd"/><path fill="#000000" d="M 513.007812 347.179688 C 514.496094 335.734375 515.296875 323.589844 515.296875 311.015625 C 515.296875 298.269531 514.472656 285.96875 512.945312 274.386719 C 547.082031 259.679688 546.335938 361.394531 513.007812 347.179688 Z M 513.007812 347.179688 " fill-opacity="1" fill-rule="evenodd"/><path fill="#000000" d="M 518.539062 239.25 L 527.917969 175.066406 L 540.882812 175.066406 L 549.625 239.25 Z M 518.539062 239.25 " fill-opacity="1" fill-rule="nonzero"/><path fill="#000000" d="M 550.378906 166.433594 C 550.378906 167.472656 550.277344 168.5 550.074219 169.519531 C 549.871094 170.539062 549.570312 171.53125 549.171875 172.488281 C 548.773438 173.449219 548.289062 174.363281 547.710938 175.226562 C 547.132812 176.089844 546.476562 176.890625 545.742188 177.625 C 545.007812 178.359375 544.207031 179.015625 543.34375 179.589844 C 542.480469 180.167969 541.566406 180.65625 540.609375 181.054688 C 539.648438 181.453125 538.660156 181.75 537.640625 181.953125 C 536.621094 182.15625 535.589844 182.257812 534.550781 182.257812 C 533.511719 182.257812 532.484375 182.15625 531.464844 181.953125 C 530.445312 181.75 529.457031 181.453125 528.496094 181.054688 C 527.535156 180.65625 526.625 180.167969 525.761719 179.589844 C 524.894531 179.015625 524.097656 178.359375 523.363281 177.625 C 522.628906 176.890625 521.972656 176.089844 521.394531 175.226562 C 520.816406 174.363281 520.328125 173.449219 519.929688 172.488281 C 519.535156 171.53125 519.234375 170.539062 519.03125 169.519531 C 518.828125 168.5 518.726562 167.472656 518.726562 166.433594 C 518.726562 165.394531 518.828125 164.363281 519.03125 163.347656 C 519.234375 162.328125 519.535156 161.335938 519.929688 160.378906 C 520.328125 159.417969 520.816406 158.503906 521.394531 157.640625 C 521.972656 156.777344 522.628906 155.976562 523.363281 155.242188 C 524.097656 154.507812 524.894531 153.851562 525.761719 153.273438 C 526.625 152.699219 527.535156 152.210938 528.496094 151.8125 C 529.457031 151.414062 530.445312 151.113281 531.464844 150.910156 C 532.484375 150.710938 533.511719 150.609375 534.550781 150.609375 C 535.589844 150.609375 536.621094 150.710938 537.640625 150.910156 C 538.660156 151.113281 539.648438 151.414062 540.609375 151.8125 C 541.566406 152.210938 542.480469 152.699219 543.34375 153.273438 C 544.207031 153.851562 545.007812 154.507812 545.742188 155.242188 C 546.476562 155.976562 547.132812 156.777344 547.710938 157.640625 C 548.289062 158.503906 548.773438 159.417969 549.171875 160.378906 C 549.570312 161.335938 549.871094 162.328125 550.074219 163.347656 C 550.277344 164.363281 550.378906 165.394531 550.378906 166.433594 Z M 550.378906 166.433594 " fill-opacity="1" fill-rule="nonzero"/><path fill="#000000" d="M 529.539062 126.183594 L 530.492188 163.527344 L 538.609375 163.527344 L 539.527344 123.8125 Z M 529.539062 126.183594 " fill-opacity="1" fill-rule="nonzero"/><g fill="#000000" fill-opacity="1"><g transform="translate(351.822555, 752.730342)"><g><path d="M 11.84375 0.3125 C 9.96875 0.3125 8.296875 -0.113281 6.828125 -0.96875 C 5.359375 -1.832031 4.207031 -3.09375 3.375 -4.75 C 2.550781 -6.40625 2.140625 -8.390625 2.140625 -10.703125 C 2.140625 -13.023438 2.550781 -15.007812 3.375 -16.65625 C 4.207031 -18.3125 5.359375 -19.566406 6.828125 -20.421875 C 8.296875 -21.285156 9.96875 -21.71875 11.84375 -21.71875 C 13.84375 -21.71875 15.503906 -21.335938 16.828125 -20.578125 C 18.160156 -19.828125 19.117188 -18.691406 19.703125 -17.171875 L 18.09375 -16.09375 L 17.71875 -16.09375 C 17.132812 -17.320312 16.375 -18.191406 15.4375 -18.703125 C 14.5 -19.210938 13.300781 -19.46875 11.84375 -19.46875 C 10.488281 -19.46875 9.289062 -19.164062 8.25 -18.5625 C 7.207031 -17.96875 6.375 -17.015625 5.75 -15.703125 C 5.132812 -14.398438 4.828125 -12.734375 4.828125 -10.703125 C 4.828125 -8.671875 5.132812 -7.003906 5.75 -5.703125 C 6.375 -4.410156 7.207031 -3.460938 8.25 -2.859375 C 9.289062 -2.265625 10.488281 -1.96875 11.84375 -1.96875 C 13.394531 -1.96875 14.660156 -2.316406 15.640625 -3.015625 C 16.628906 -3.710938 17.363281 -4.84375 17.84375 -6.40625 L 18.203125 -6.40625 L 19.890625 -5.5625 C 19.378906 -3.664062 18.4375 -2.210938 17.0625 -1.203125 C 15.695312 -0.191406 13.957031 0.3125 11.84375 0.3125 Z M 11.84375 0.3125 "/></g></g><g transform="translate(372.828413, 752.730342)"><g><path d="M 19.28125 0 L 16.578125 0 L 14.609375 -5.875 L 5.484375 -5.875 L 3.484375 0 L 0.84375 0 L 8.328125 -21.421875 L 11.8125 -21.421875 Z M 9.859375 -18.828125 L 6.1875 -7.984375 L 13.890625 -7.984375 L 10.21875 -18.828125 Z M 9.859375 -18.828125 "/></g></g><g transform="translate(392.955365, 752.730342)"><g/></g><g transform="translate(400.30888, 752.730342)"><g><path d="M 9.859375 -9.328125 L 1.53125 -9.328125 L 1.53125 -11.46875 L 9.859375 -11.46875 Z M 9.859375 -9.328125 "/></g></g></g></svg>