<svg xmlns="http://www.w3.org/2000/svg" xmlns:xlink="http://www.w3.org/1999/xlink" width="1080" zoomAndPan="magnify" viewBox="0 0 810 809.999993" height="1080" preserveAspectRatio="xMidYMid meet" version="1.0"><defs><g/><clipPath id="6230d6ce1a"><path d="M 169.117188 112.078125 L 623.367188 112.078125 L 623.367188 654.324219 L 169.117188 654.324219 Z M 169.117188 112.078125 " clip-rule="nonzero"/></clipPath></defs><g clip-path="url(#6230d6ce1a)"><path fill="#131212" d="M 613.734375 584.933594 C 613.214844 587.191406 611.824219 589.085938 609.828125 590.265625 L 557.167969 621.347656 C 537.277344 633.066406 529.304688 634.285156 509.785156 628.59375 C 501.800781 626.265625 497 624.820312 493.429688 623.75 C 489.0625 622.4375 486.503906 621.667969 482.285156 620.527344 C 475.902344 618.796875 470.078125 618.984375 459.519531 619.320312 C 454.351562 619.484375 448.089844 619.683594 439.9375 619.742188 L 439.9375 592.171875 C 446.714844 592.128906 452.660156 591.542969 457.667969 586.535156 C 458.097656 586.109375 458.570312 585.605469 459.09375 585.039062 C 463.203125 580.621094 470.082031 573.222656 487.441406 572.867188 C 498.847656 572.699219 503.519531 576.304688 508.496094 580.183594 C 511.125 582.234375 513.84375 584.355469 517.609375 585.941406 L 543.054688 595.359375 C 545.925781 596.417969 547.4375 599.527344 546.5 602.441406 C 545.550781 605.378906 542.371094 607.039062 539.421875 606.140625 L 501.035156 594.488281 C 498.546875 593.726562 495.921875 595.132812 495.167969 597.617188 C 494.410156 600.101562 495.8125 602.730469 498.300781 603.484375 L 536.6875 615.136719 C 538.128906 615.574219 539.589844 615.785156 541.03125 615.785156 C 547.421875 615.78125 553.410156 611.679688 555.457031 605.320312 C 555.890625 603.980469 556.058594 602.628906 556.113281 601.285156 L 601.441406 575.746094 C 605.257812 573.59375 610.144531 574.773438 612.5625 578.429688 C 613.839844 580.363281 614.253906 582.671875 613.734375 584.933594 Z M 312.5 383.347656 L 335.480469 408.324219 L 302.597656 434.519531 C 301.757812 435.1875 300.683594 435.402344 299.65625 435.117188 C 298.625 434.832031 297.824219 434.089844 297.449219 433.089844 L 281.039062 388.726562 Z M 282.289062 293.199219 L 282.289062 236.71875 C 292.011719 234.488281 315.589844 226.371094 321.839844 199.476562 C 332.660156 210.507812 350.253906 214.46875 374.347656 211.246094 C 382.964844 210.089844 389.898438 211.753906 394.960938 216.179688 C 400.46875 221 402.433594 227.929688 402.433594 232.816406 L 402.433594 293.199219 C 402.433594 321.226562 379.613281 344.027344 351.566406 344.027344 L 333.15625 344.027344 C 305.105469 344.027344 282.289062 321.226562 282.289062 293.199219 Z M 277.582031 227.957031 L 264.894531 227.957031 C 261.917969 227.957031 259.066406 228.488281 256.398438 229.410156 C 250.320312 215.175781 250.089844 194.613281 256.203125 179.570312 C 264.566406 158.964844 285.425781 149.589844 301.730469 150.972656 C 303.640625 151.128906 305.484375 150.105469 306.34375 148.378906 C 312.316406 136.347656 323.691406 127.574219 338.382812 123.671875 C 358.699219 118.277344 381.9375 122.945312 402.128906 136.480469 C 431.582031 156.226562 439.574219 200.363281 428.050781 229.316406 C 425.464844 228.449219 422.703125 227.957031 419.824219 227.957031 L 411.398438 227.957031 C 410.367188 221.734375 407.339844 214.507812 401.160156 209.105469 C 396.214844 204.78125 387.332031 200.023438 373.101562 201.925781 C 346.472656 205.484375 330.0625 199.835938 322.921875 184.65625 C 321.992188 182.683594 319.828125 181.617188 317.6875 182.054688 C 315.546875 182.511719 314.003906 184.378906 313.960938 186.5625 C 313.265625 220.875 283.890625 227.109375 278.074219 228.007812 C 277.910156 227.992188 277.75 227.957031 277.582031 227.957031 Z M 272.878906 275.085938 L 264.894531 275.085938 C 255.761719 275.085938 248.328125 267.660156 248.328125 258.53125 L 248.328125 253.914062 C 248.328125 244.785156 255.761719 237.359375 264.894531 237.359375 L 272.878906 237.359375 Z M 436.390625 253.914062 L 436.390625 258.53125 C 436.390625 267.660156 428.957031 275.085938 419.824219 275.085938 L 411.84375 275.085938 L 411.84375 237.359375 L 419.824219 237.359375 C 428.957031 237.359375 436.390625 244.785156 436.390625 253.914062 Z M 403.714844 388.738281 L 387.269531 433.085938 C 386.894531 434.089844 386.09375 434.832031 385.0625 435.117188 C 384.027344 435.402344 382.960938 435.1875 382.121094 434.519531 L 349.242188 408.324219 L 372.21875 383.347656 Z M 318.9375 376.449219 L 318.9375 351.667969 C 323.503906 352.777344 328.25 353.429688 333.15625 353.429688 L 351.566406 353.429688 C 356.46875 353.429688 361.214844 352.777344 365.78125 351.667969 L 365.78125 376.449219 L 342.359375 401.910156 Z M 620.410156 573.246094 C 615.289062 565.488281 604.921875 562.988281 596.820312 567.554688 L 553.414062 592.011719 C 551.707031 589.597656 549.308594 587.644531 546.324219 586.539062 L 521.074219 577.199219 C 518.652344 576.179688 516.625 574.601562 514.285156 572.773438 C 508.800781 568.496094 501.949219 563.140625 487.253906 563.46875 C 465.902344 563.902344 456.648438 573.855469 452.199219 578.640625 C 451.761719 579.109375 451.371094 579.53125 451.015625 579.886719 C 448.59375 582.308594 445.535156 582.714844 439.9375 582.761719 L 439.9375 577.605469 C 439.9375 571.847656 435.25 567.160156 429.484375 567.160156 L 251.828125 567.160156 C 249.230469 567.160156 247.125 569.265625 247.125 571.859375 C 247.125 574.457031 249.230469 576.5625 251.828125 576.5625 L 429.484375 576.5625 C 430.0625 576.5625 430.53125 577.03125 430.53125 577.605469 L 430.53125 643.875 C 430.53125 644.453125 430.0625 644.921875 429.484375 644.921875 L 219.035156 644.921875 C 196.699219 644.921875 178.527344 626.761719 178.527344 604.445312 L 178.527344 463.0625 C 178.527344 430.152344 202.09375 402.230469 234.558594 396.679688 L 271.605469 390.34375 L 288.625 436.351562 C 290.058594 440.214844 293.15625 443.066406 297.132812 444.175781 C 298.28125 444.496094 299.441406 444.652344 300.589844 444.652344 C 303.417969 444.652344 306.167969 443.699219 308.460938 441.871094 L 342.359375 414.871094 L 376.253906 441.871094 C 378.550781 443.699219 381.300781 444.652344 384.128906 444.652344 C 385.277344 444.652344 386.441406 444.496094 387.589844 444.175781 C 391.5625 443.066406 394.664062 440.214844 396.09375 436.351562 L 413.152344 390.351562 L 427.8125 392.859375 C 428.082031 392.90625 428.347656 392.929688 428.613281 392.929688 C 430.863281 392.929688 432.851562 391.308594 433.246094 389.019531 C 433.683594 386.460938 431.964844 384.03125 429.402344 383.59375 L 375.191406 374.316406 L 375.191406 348.601562 C 396.71875 339.398438 411.84375 318.035156 411.84375 293.199219 L 411.84375 284.484375 L 419.824219 284.484375 C 434.148438 284.484375 445.800781 272.84375 445.800781 258.53125 L 445.800781 253.914062 C 445.800781 245.855469 442.105469 238.644531 436.320312 233.878906 C 449.785156 201.4375 440.871094 151.128906 407.371094 128.671875 C 384.929688 113.625 358.902344 108.492188 335.964844 114.585938 C 319.734375 118.894531 306.863281 128.375 299.382812 141.445312 C 280.109375 141.066406 257.03125 152.519531 247.480469 176.03125 C 240.265625 193.804688 240.679688 217.453125 248.167969 234.085938 C 242.519531 238.851562 238.921875 245.964844 238.921875 253.914062 L 238.921875 258.53125 C 238.921875 272.84375 250.574219 284.484375 264.894531 284.484375 L 272.878906 284.484375 L 272.878906 293.199219 C 272.878906 318.035156 288 339.398438 309.527344 348.597656 L 309.527344 374.316406 L 273.957031 380.398438 C 273.953125 380.398438 273.953125 380.398438 273.949219 380.402344 L 232.972656 387.410156 C 195.972656 393.742188 169.117188 425.554688 169.117188 463.0625 L 169.117188 604.445312 C 169.117188 631.945312 191.511719 654.324219 219.035156 654.324219 L 429.484375 654.324219 C 435.25 654.324219 439.9375 649.636719 439.9375 643.875 L 439.9375 629.144531 C 448.234375 629.085938 454.582031 628.886719 459.820312 628.71875 C 469.796875 628.402344 474.796875 628.242188 479.824219 629.601562 C 483.949219 630.71875 486.449219 631.46875 490.71875 632.75 C 494.304688 633.832031 499.128906 635.28125 507.148438 637.621094 C 515.316406 640.003906 521.933594 641.277344 528.15625 641.277344 C 538.691406 641.277344 548.089844 637.613281 561.953125 629.449219 L 614.613281 598.363281 C 618.851562 595.859375 621.796875 591.839844 622.90625 587.042969 C 624.011719 582.253906 623.125 577.351562 620.410156 573.246094 " fill-opacity="1" fill-rule="nonzero"/></g><path fill="#131212" d="M 317.929688 557.375 L 366.789062 557.375 C 370.933594 557.375 373.9375 553.4375 372.839844 549.445312 L 353.421875 478.800781 C 352.675781 476.078125 350.199219 474.191406 347.371094 474.191406 L 337.347656 474.191406 C 334.523438 474.191406 332.046875 476.078125 331.296875 478.800781 L 311.878906 549.449219 C 310.78125 553.4375 313.785156 557.375 317.929688 557.375 " fill-opacity="1" fill-rule="nonzero"/><path fill="#131212" d="M 513.695312 434.246094 C 520.117188 434.246094 525.34375 429.027344 525.34375 422.609375 C 525.34375 416.191406 520.117188 410.972656 513.695312 410.972656 C 507.273438 410.972656 502.050781 416.191406 502.050781 422.609375 C 502.050781 429.027344 507.273438 434.246094 513.695312 434.246094 " fill-opacity="1" fill-rule="nonzero"/><path fill="#131212" d="M 335.351562 465.171875 L 349.367188 465.171875 C 351.628906 465.171875 353.710938 463.957031 354.828125 461.992188 L 362.011719 449.304688 C 363.53125 446.625 362.871094 443.238281 360.460938 441.316406 L 342.359375 426.894531 L 324.253906 441.316406 C 321.84375 443.238281 321.1875 446.625 322.707031 449.304688 L 329.890625 461.992188 C 331.003906 463.957031 333.089844 465.171875 335.351562 465.171875 " fill-opacity="1" fill-rule="nonzero"/><path fill="#131212" d="M 560.539062 469.871094 C 554.117188 469.871094 548.890625 475.089844 548.890625 481.507812 C 548.890625 487.925781 554.117188 493.144531 560.539062 493.144531 C 566.960938 493.144531 572.183594 487.925781 572.183594 481.507812 C 572.183594 475.089844 566.960938 469.871094 560.539062 469.871094 " fill-opacity="1" fill-rule="nonzero"/><path fill="#131212" d="M 513.699219 401.566406 C 525.308594 401.566406 534.753906 411.003906 534.753906 422.609375 C 534.753906 434.207031 525.308594 443.648438 513.699219 443.648438 C 502.085938 443.648438 492.644531 434.207031 492.644531 422.609375 C 492.644531 411.003906 502.085938 401.566406 513.699219 401.566406 Z M 576.9375 402.605469 C 578.960938 404.234375 579.28125 407.191406 577.652344 409.214844 L 503.917969 500.792969 C 502.988281 501.949219 501.625 502.550781 500.25 502.550781 C 499.214844 502.550781 498.171875 502.210938 497.300781 501.511719 C 495.277344 499.882812 494.957031 496.925781 496.585938 494.898438 L 570.320312 403.320312 C 571.949219 401.300781 574.910156 400.980469 576.9375 402.605469 Z M 560.539062 502.550781 C 548.929688 502.550781 539.484375 493.109375 539.484375 481.507812 C 539.484375 469.90625 548.929688 460.46875 560.539062 460.46875 C 572.152344 460.46875 581.597656 469.90625 581.597656 481.507812 C 581.597656 493.109375 572.152344 502.550781 560.539062 502.550781 Z M 468.050781 525.066406 L 606.183594 525.066406 C 611.382812 525.066406 615.597656 520.855469 615.597656 515.664062 L 615.597656 388.574219 C 615.597656 383.382812 611.382812 379.171875 606.183594 379.171875 L 468.050781 379.171875 C 462.855469 379.171875 458.640625 383.382812 458.640625 388.574219 L 458.640625 515.664062 C 458.640625 520.855469 462.855469 525.066406 468.050781 525.066406 " fill-opacity="1" fill-rule="nonzero"/><path fill="#131212" d="M 470.339844 372.324219 L 532.671875 305.886719 C 533.925781 304.554688 535.5 303.820312 537.117188 303.820312 L 537.121094 303.820312 C 538.730469 303.820312 540.3125 304.554688 541.5625 305.886719 L 603.894531 372.324219 C 604.820312 373.3125 606.074219 373.8125 607.328125 373.8125 C 608.480469 373.8125 609.636719 373.390625 610.542969 372.542969 C 612.4375 370.765625 612.535156 367.789062 610.761719 365.894531 L 548.425781 299.457031 C 545.378906 296.207031 541.359375 294.414062 537.121094 294.414062 C 537.121094 294.414062 537.121094 294.414062 537.117188 294.414062 C 532.875 294.414062 528.859375 296.207031 525.808594 299.457031 L 463.476562 365.894531 C 461.699219 367.789062 461.792969 370.765625 463.6875 372.542969 C 465.589844 374.316406 468.566406 374.222656 470.339844 372.324219 " fill-opacity="1" fill-rule="nonzero"/><g fill="#000000" fill-opacity="1"><g transform="translate(296.723074, 730.470463)"><g><path d="M 9.359375 0.3125 C 8.015625 0.3125 6.804688 0.128906 5.734375 -0.234375 C 4.660156 -0.609375 3.769531 -1.09375 3.0625 -1.6875 C 2.351562 -2.28125 1.820312 -2.929688 1.46875 -3.640625 L 2.84375 -5.3125 L 3.203125 -5.3125 C 4.535156 -3.082031 6.585938 -1.96875 9.359375 -1.96875 C 10.972656 -1.96875 12.171875 -2.300781 12.953125 -2.96875 C 13.742188 -3.644531 14.140625 -4.582031 14.140625 -5.78125 C 14.140625 -6.488281 14.007812 -7.085938 13.75 -7.578125 C 13.488281 -8.066406 13.0625 -8.484375 12.46875 -8.828125 C 11.875 -9.171875 11.0625 -9.472656 10.03125 -9.734375 L 7.53125 -10.34375 C 5.664062 -10.789062 4.289062 -11.503906 3.40625 -12.484375 C 2.519531 -13.460938 2.078125 -14.707031 2.078125 -16.21875 C 2.078125 -17.28125 2.347656 -18.226562 2.890625 -19.0625 C 3.441406 -19.894531 4.242188 -20.546875 5.296875 -21.015625 C 6.359375 -21.484375 7.617188 -21.71875 9.078125 -21.71875 C 10.691406 -21.71875 12.050781 -21.488281 13.15625 -21.03125 C 14.269531 -20.582031 15.160156 -19.90625 15.828125 -19 L 14.59375 -17.34375 L 14.21875 -17.34375 C 13.601562 -18.09375 12.875 -18.644531 12.03125 -19 C 11.195312 -19.351562 10.210938 -19.53125 9.078125 -19.53125 C 7.597656 -19.53125 6.476562 -19.238281 5.71875 -18.65625 C 4.957031 -18.082031 4.578125 -17.289062 4.578125 -16.28125 C 4.578125 -15.3125 4.851562 -14.539062 5.40625 -13.96875 C 5.96875 -13.394531 6.910156 -12.953125 8.234375 -12.640625 L 10.796875 -12.03125 C 12.878906 -11.539062 14.382812 -10.789062 15.3125 -9.78125 C 16.25 -8.769531 16.71875 -7.476562 16.71875 -5.90625 C 16.71875 -4.695312 16.445312 -3.625 15.90625 -2.6875 C 15.363281 -1.757812 14.539062 -1.023438 13.4375 -0.484375 C 12.332031 0.046875 10.972656 0.3125 9.359375 0.3125 Z M 9.359375 0.3125 "/></g></g><g transform="translate(315.077566, 730.470463)"><g><path d="M 11.046875 0.3125 C 8.421875 0.3125 6.429688 -0.351562 5.078125 -1.6875 C 3.734375 -3.019531 3.0625 -5 3.0625 -7.625 L 3.0625 -21.421875 L 5.5625 -21.421875 L 5.5625 -7.640625 C 5.5625 -5.765625 6.015625 -4.359375 6.921875 -3.421875 C 7.828125 -2.484375 9.203125 -2.015625 11.046875 -2.015625 C 14.703125 -2.015625 16.53125 -3.890625 16.53125 -7.640625 L 16.53125 -21.421875 L 19.03125 -21.421875 L 19.03125 -7.625 C 19.03125 -5 18.351562 -3.019531 17 -1.6875 C 15.65625 -0.351562 13.671875 0.3125 11.046875 0.3125 Z M 11.046875 0.3125 "/></g></g><g transform="translate(337.15276, 730.470463)"><g><path d="M 3.234375 0 L 3.234375 -21.421875 L 11.359375 -21.421875 C 12.671875 -21.421875 13.785156 -21.207031 14.703125 -20.78125 C 15.617188 -20.363281 16.304688 -19.765625 16.765625 -18.984375 C 17.234375 -18.210938 17.46875 -17.289062 17.46875 -16.21875 C 17.46875 -15.289062 17.21875 -14.445312 16.71875 -13.6875 C 16.21875 -12.9375 15.5 -12.351562 14.5625 -11.9375 L 14.5625 -11.625 C 15.988281 -11.28125 17.066406 -10.644531 17.796875 -9.71875 C 18.535156 -8.789062 18.90625 -7.625 18.90625 -6.21875 C 18.90625 -4.21875 18.320312 -2.679688 17.15625 -1.609375 C 15.988281 -0.535156 14.257812 0 11.96875 0 Z M 11.234375 -12.421875 C 12.421875 -12.421875 13.335938 -12.726562 13.984375 -13.34375 C 14.640625 -13.96875 14.96875 -14.820312 14.96875 -15.90625 C 14.96875 -17.050781 14.648438 -17.910156 14.015625 -18.484375 C 13.390625 -19.054688 12.460938 -19.34375 11.234375 -19.34375 L 5.75 -19.34375 L 5.75 -12.421875 Z M 11.78125 -2.078125 C 14.820312 -2.078125 16.34375 -3.457031 16.34375 -6.21875 C 16.34375 -8.96875 14.820312 -10.34375 11.78125 -10.34375 L 5.75 -10.34375 L 5.75 -2.078125 Z M 11.78125 -2.078125 "/></g></g><g transform="translate(357.76311, 730.470463)"><g/></g><g transform="translate(365.116626, 730.470463)"><g><path d="M 3.234375 0 L 3.234375 -21.421875 L 11.359375 -21.421875 C 12.671875 -21.421875 13.785156 -21.207031 14.703125 -20.78125 C 15.617188 -20.363281 16.304688 -19.765625 16.765625 -18.984375 C 17.234375 -18.210938 17.46875 -17.289062 17.46875 -16.21875 C 17.46875 -15.289062 17.21875 -14.445312 16.71875 -13.6875 C 16.21875 -12.9375 15.5 -12.351562 14.5625 -11.9375 L 14.5625 -11.625 C 15.988281 -11.28125 17.066406 -10.644531 17.796875 -9.71875 C 18.535156 -8.789062 18.90625 -7.625 18.90625 -6.21875 C 18.90625 -4.21875 18.320312 -2.679688 17.15625 -1.609375 C 15.988281 -0.535156 14.257812 0 11.96875 0 Z M 11.234375 -12.421875 C 12.421875 -12.421875 13.335938 -12.726562 13.984375 -13.34375 C 14.640625 -13.96875 14.96875 -14.820312 14.96875 -15.90625 C 14.96875 -17.050781 14.648438 -17.910156 14.015625 -18.484375 C 13.390625 -19.054688 12.460938 -19.34375 11.234375 -19.34375 L 5.75 -19.34375 L 5.75 -12.421875 Z M 11.78125 -2.078125 C 14.820312 -2.078125 16.34375 -3.457031 16.34375 -6.21875 C 16.34375 -8.96875 14.820312 -10.34375 11.78125 -10.34375 L 5.75 -10.34375 L 5.75 -2.078125 Z M 11.78125 -2.078125 "/></g></g><g transform="translate(385.726976, 730.470463)"><g><path d="M 3.234375 0 L 3.234375 -21.421875 L 11.015625 -21.421875 C 12.453125 -21.421875 13.65625 -21.179688 14.625 -20.703125 C 15.601562 -20.234375 16.335938 -19.566406 16.828125 -18.703125 C 17.316406 -17.835938 17.5625 -16.8125 17.5625 -15.625 C 17.5625 -14.300781 17.226562 -13.207031 16.5625 -12.34375 C 15.90625 -11.476562 14.875 -10.832031 13.46875 -10.40625 L 13.46875 -10.09375 C 14.15625 -9.820312 14.71875 -9.390625 15.15625 -8.796875 C 15.601562 -8.210938 16.007812 -7.34375 16.375 -6.1875 L 18.359375 0 L 15.765625 0 L 13.625 -6.546875 C 13.375 -7.316406 13.082031 -7.921875 12.75 -8.359375 C 12.414062 -8.804688 11.992188 -9.125 11.484375 -9.3125 C 10.972656 -9.507812 10.328125 -9.609375 9.546875 -9.609375 L 5.75 -9.609375 L 5.75 0 Z M 10.953125 -11.75 C 12.296875 -11.75 13.289062 -12.054688 13.9375 -12.671875 C 14.59375 -13.296875 14.921875 -14.242188 14.921875 -15.515625 C 14.921875 -16.785156 14.59375 -17.726562 13.9375 -18.34375 C 13.289062 -18.96875 12.296875 -19.28125 10.953125 -19.28125 L 5.75 -19.28125 L 5.75 -11.75 Z M 10.953125 -11.75 "/></g></g><g transform="translate(405.560959, 730.470463)"><g><path d="M 11.75 0.3125 C 9.894531 0.3125 8.242188 -0.0859375 6.796875 -0.890625 C 5.347656 -1.691406 4.207031 -2.914062 3.375 -4.5625 C 2.550781 -6.207031 2.140625 -8.253906 2.140625 -10.703125 C 2.140625 -13.160156 2.550781 -15.210938 3.375 -16.859375 C 4.207031 -18.503906 5.347656 -19.722656 6.796875 -20.515625 C 8.242188 -21.316406 9.894531 -21.71875 11.75 -21.71875 C 13.601562 -21.71875 15.253906 -21.316406 16.703125 -20.515625 C 18.148438 -19.722656 19.285156 -18.503906 20.109375 -16.859375 C 20.941406 -15.210938 21.359375 -13.160156 21.359375 -10.703125 C 21.359375 -8.253906 20.941406 -6.207031 20.109375 -4.5625 C 19.285156 -2.914062 18.148438 -1.691406 16.703125 -0.890625 C 15.253906 -0.0859375 13.601562 0.3125 11.75 0.3125 Z M 11.75 -2.015625 C 13.976562 -2.015625 15.6875 -2.710938 16.875 -4.109375 C 18.0625 -5.503906 18.65625 -7.703125 18.65625 -10.703125 C 18.65625 -13.710938 18.0625 -15.910156 16.875 -17.296875 C 15.6875 -18.691406 13.976562 -19.390625 11.75 -19.390625 C 7.132812 -19.390625 4.828125 -16.492188 4.828125 -10.703125 C 4.828125 -4.910156 7.132812 -2.015625 11.75 -2.015625 Z M 11.75 -2.015625 "/></g></g><g transform="translate(429.057052, 730.470463)"><g><path d="M 3.234375 0 L 3.234375 -21.421875 L 5.75 -21.421875 L 5.75 -12.0625 L 6.21875 -12.0625 L 15 -21.421875 L 17.75 -21.421875 L 17.75 -21.046875 L 8.484375 -11.046875 L 18.484375 -0.359375 L 18.484375 0 L 15.59375 0 L 6.21875 -9.859375 L 5.75 -9.859375 L 5.75 0 Z M 3.234375 0 "/></g></g><g transform="translate(447.953535, 730.470463)"><g><path d="M 5.75 -10.09375 L 5.75 -2.078125 L 16.671875 -2.078125 L 16.671875 0 L 3.234375 0 L 3.234375 -21.421875 L 16.4375 -21.421875 L 16.4375 -19.34375 L 5.75 -19.34375 L 5.75 -12.171875 L 15.171875 -12.171875 L 15.171875 -10.09375 Z M 5.75 -10.09375 "/></g></g><g transform="translate(466.044355, 730.470463)"><g><path d="M 3.234375 0 L 3.234375 -21.421875 L 11.015625 -21.421875 C 12.453125 -21.421875 13.65625 -21.179688 14.625 -20.703125 C 15.601562 -20.234375 16.335938 -19.566406 16.828125 -18.703125 C 17.316406 -17.835938 17.5625 -16.8125 17.5625 -15.625 C 17.5625 -14.300781 17.226562 -13.207031 16.5625 -12.34375 C 15.90625 -11.476562 14.875 -10.832031 13.46875 -10.40625 L 13.46875 -10.09375 C 14.15625 -9.820312 14.71875 -9.390625 15.15625 -8.796875 C 15.601562 -8.210938 16.007812 -7.34375 16.375 -6.1875 L 18.359375 0 L 15.765625 0 L 13.625 -6.546875 C 13.375 -7.316406 13.082031 -7.921875 12.75 -8.359375 C 12.414062 -8.804688 11.992188 -9.125 11.484375 -9.3125 C 10.972656 -9.507812 10.328125 -9.609375 9.546875 -9.609375 L 5.75 -9.609375 L 5.75 0 Z M 10.953125 -11.75 C 12.296875 -11.75 13.289062 -12.054688 13.9375 -12.671875 C 14.59375 -13.296875 14.921875 -14.242188 14.921875 -15.515625 C 14.921875 -16.785156 14.59375 -17.726562 13.9375 -18.34375 C 13.289062 -18.96875 12.296875 -19.28125 10.953125 -19.28125 L 5.75 -19.28125 L 5.75 -11.75 Z M 10.953125 -11.75 "/></g></g></g></svg>