<svg xmlns="http://www.w3.org/2000/svg" xmlns:xlink="http://www.w3.org/1999/xlink" width="1080" zoomAndPan="magnify" viewBox="0 0 810 809.999993" height="1080" preserveAspectRatio="xMidYMid meet" version="1.0"><defs><g/><clipPath id="ce5a5c31c8"><path d="M 75 146 L 735.8125 146 L 735.8125 601 L 75 601 Z M 75 146 " clip-rule="nonzero"/></clipPath></defs><path fill="#000000" d="M 411.550781 413.917969 C 407.398438 413.917969 403.300781 413.269531 399.226562 411.945312 L 210.375 348.960938 C 206.953125 357.855469 205.238281 369.324219 205.238281 386.054688 C 217.5625 393.191406 229.574219 407.535156 229.574219 432.257812 C 229.574219 447.40625 221.996094 458.304688 215.484375 465.539062 C 243.503906 498.046875 320.601562 521.417969 411.574219 521.417969 C 526.210938 521.417969 619.105469 484.324219 619.105469 438.640625 C 619.105469 428.546875 619.105469 387.328125 619.105469 346.859375 L 423.820312 411.945312 C 419.800781 413.269531 415.699219 413.917969 411.550781 413.917969 Z M 411.550781 413.917969 " fill-opacity="1" fill-rule="nonzero"/><g clip-path="url(#ce5a5c31c8)"><path fill="#000000" d="M 726.941406 250.535156 L 415.648438 146.769531 C 412.949219 145.886719 410.121094 145.886719 407.449219 146.769531 L 96.15625 250.535156 C 90.863281 252.300781 87.285156 257.253906 87.285156 262.832031 C 87.285156 268.410156 90.863281 273.367188 96.15625 275.128906 L 167.519531 298.917969 C 151.101562 317.960938 141.554688 344.808594 138.050781 388.496094 C 126.765625 393.8125 118.804688 405.148438 118.804688 418.484375 C 118.804688 432.050781 126.949219 443.59375 138.570312 448.808594 C 128.429688 537.140625 75.535156 566.582031 75.535156 574.132812 C 75.535156 577.972656 116.496094 600.074219 126.222656 600.074219 C 141.269531 600.074219 177.378906 574.546875 177.378906 519.421875 C 177.378906 486.941406 174.449219 462.402344 171.359375 444.996094 C 179.6875 438.949219 185.472656 429.585938 185.472656 418.484375 C 185.472656 406.367188 178.703125 396.25 169.027344 390.414062 C 174.5 318.324219 196.78125 306.257812 250.6875 283.898438 C 256.085938 281.769531 266.277344 277.644531 272.167969 275.207031 C 282.75 270.847656 292.324219 266.957031 301.507812 263.273438 C 331.15625 251.496094 356.21875 242.027344 375.335938 234.996094 C 396.269531 227.527344 405.660156 224.800781 406 224.699219 C 414.015625 222 422.9375 226.332031 425.6875 234.503906 C 428.410156 242.652344 424.054688 251.46875 415.882812 254.21875 C 415.257812 254.429688 378.835938 264.832031 284.074219 304.003906 C 277.980469 306.519531 272.167969 308.800781 266.640625 310.980469 C 255.410156 315.417969 246.097656 318.972656 238.289062 322.550781 L 407.449219 378.921875 C 408.800781 379.335938 410.148438 379.570312 411.550781 379.570312 C 412.949219 379.570312 414.300781 379.335938 415.648438 378.894531 L 726.941406 275.128906 C 732.234375 273.367188 735.8125 268.410156 735.8125 262.832031 C 735.8125 257.253906 732.234375 252.300781 726.941406 250.535156 Z M 726.941406 250.535156 " fill-opacity="1" fill-rule="nonzero"/></g><g fill="#000000" fill-opacity="1"><g transform="translate(287.611746, 730.470463)"><g><path d="M 11.265625 0.3125 C 9.460938 0.3125 7.875 -0.0976562 6.5 -0.921875 C 5.132812 -1.742188 4.066406 -2.976562 3.296875 -4.625 C 2.523438 -6.28125 2.140625 -8.304688 2.140625 -10.703125 C 2.140625 -13.109375 2.550781 -15.132812 3.375 -16.78125 C 4.195312 -18.4375 5.34375 -19.671875 6.8125 -20.484375 C 8.28125 -21.304688 9.96875 -21.71875 11.875 -21.71875 C 13.925781 -21.71875 15.609375 -21.347656 16.921875 -20.609375 C 18.242188 -19.878906 19.179688 -18.78125 19.734375 -17.3125 L 18.09375 -16.34375 L 17.71875 -16.34375 C 17.164062 -17.457031 16.414062 -18.253906 15.46875 -18.734375 C 14.519531 -19.222656 13.320312 -19.46875 11.875 -19.46875 C 7.175781 -19.46875 4.828125 -16.546875 4.828125 -10.703125 C 4.828125 -7.671875 5.414062 -5.457031 6.59375 -4.0625 C 7.78125 -2.664062 9.441406 -1.96875 11.578125 -1.96875 C 13.523438 -1.96875 14.984375 -2.410156 15.953125 -3.296875 C 16.929688 -4.179688 17.421875 -5.582031 17.421875 -7.5 L 17.421875 -9.390625 L 11.328125 -9.390625 L 11.328125 -11.40625 L 19.859375 -11.40625 L 19.859375 0 L 17.53125 0 L 17.53125 -2.875 L 17.234375 -2.9375 C 16.660156 -1.84375 15.867188 -1.023438 14.859375 -0.484375 C 13.847656 0.046875 12.648438 0.3125 11.265625 0.3125 Z M 11.265625 0.3125 "/></g></g><g transform="translate(309.87737, 730.470463)"><g><path d="M 3.234375 0 L 3.234375 -21.421875 L 11.015625 -21.421875 C 12.453125 -21.421875 13.65625 -21.179688 14.625 -20.703125 C 15.601562 -20.234375 16.335938 -19.566406 16.828125 -18.703125 C 17.316406 -17.835938 17.5625 -16.8125 17.5625 -15.625 C 17.5625 -14.300781 17.226562 -13.207031 16.5625 -12.34375 C 15.90625 -11.476562 14.875 -10.832031 13.46875 -10.40625 L 13.46875 -10.09375 C 14.15625 -9.820312 14.71875 -9.390625 15.15625 -8.796875 C 15.601562 -8.210938 16.007812 -7.34375 16.375 -6.1875 L 18.359375 0 L 15.765625 0 L 13.625 -6.546875 C 13.375 -7.316406 13.082031 -7.921875 12.75 -8.359375 C 12.414062 -8.804688 11.992188 -9.125 11.484375 -9.3125 C 10.972656 -9.507812 10.328125 -9.609375 9.546875 -9.609375 L 5.75 -9.609375 L 5.75 0 Z M 10.953125 -11.75 C 12.296875 -11.75 13.289062 -12.054688 13.9375 -12.671875 C 14.59375 -13.296875 14.921875 -14.242188 14.921875 -15.515625 C 14.921875 -16.785156 14.59375 -17.726562 13.9375 -18.34375 C 13.289062 -18.96875 12.296875 -19.28125 10.953125 -19.28125 L 5.75 -19.28125 L 5.75 -11.75 Z M 10.953125 -11.75 "/></g></g><g transform="translate(329.711353, 730.470463)"><g><path d="M 19.28125 0 L 16.578125 0 L 14.609375 -5.875 L 5.484375 -5.875 L 3.484375 0 L 0.84375 0 L 8.328125 -21.421875 L 11.8125 -21.421875 Z M 9.859375 -18.828125 L 6.1875 -7.984375 L 13.890625 -7.984375 L 10.21875 -18.828125 Z M 9.859375 -18.828125 "/></g></g><g transform="translate(349.838305, 730.470463)"><g><path d="M 10.171875 -21.421875 C 12.335938 -21.421875 14.195312 -21.03125 15.75 -20.25 C 17.3125 -19.476562 18.515625 -18.296875 19.359375 -16.703125 C 20.203125 -15.109375 20.625 -13.109375 20.625 -10.703125 C 20.625 -8.304688 20.203125 -6.3125 19.359375 -4.71875 C 18.515625 -3.125 17.3125 -1.9375 15.75 -1.15625 C 14.195312 -0.382812 12.335938 0 10.171875 0 L 3.234375 0 L 3.234375 -21.421875 Z M 9.921875 -2.140625 C 11.703125 -2.140625 13.175781 -2.414062 14.34375 -2.96875 C 15.519531 -3.53125 16.410156 -4.441406 17.015625 -5.703125 C 17.628906 -6.960938 17.9375 -8.628906 17.9375 -10.703125 C 17.9375 -12.796875 17.628906 -14.46875 17.015625 -15.71875 C 16.410156 -16.976562 15.519531 -17.882812 14.34375 -18.4375 C 13.175781 -19 11.703125 -19.28125 9.921875 -19.28125 L 5.75 -19.28125 L 5.75 -2.140625 Z M 9.921875 -2.140625 "/></g></g><g transform="translate(372.601976, 730.470463)"><g><path d="M 11.046875 0.3125 C 8.421875 0.3125 6.429688 -0.351562 5.078125 -1.6875 C 3.734375 -3.019531 3.0625 -5 3.0625 -7.625 L 3.0625 -21.421875 L 5.5625 -21.421875 L 5.5625 -7.640625 C 5.5625 -5.765625 6.015625 -4.359375 6.921875 -3.421875 C 7.828125 -2.484375 9.203125 -2.015625 11.046875 -2.015625 C 14.703125 -2.015625 16.53125 -3.890625 16.53125 -7.640625 L 16.53125 -21.421875 L 19.03125 -21.421875 L 19.03125 -7.625 C 19.03125 -5 18.351562 -3.019531 17 -1.6875 C 15.65625 -0.351562 13.671875 0.3125 11.046875 0.3125 Z M 11.046875 0.3125 "/></g></g><g transform="translate(394.67717, 730.470463)"><g><path d="M 19.28125 0 L 16.578125 0 L 14.609375 -5.875 L 5.484375 -5.875 L 3.484375 0 L 0.84375 0 L 8.328125 -21.421875 L 11.8125 -21.421875 Z M 9.859375 -18.828125 L 6.1875 -7.984375 L 13.890625 -7.984375 L 10.21875 -18.828125 Z M 9.859375 -18.828125 "/></g></g><g transform="translate(414.804122, 730.470463)"><g><path d="M 16.71875 -21.421875 L 16.71875 -19.28125 L 10 -19.28125 L 10 0 L 7.5 0 L 7.5 -19.28125 L 0.796875 -19.28125 L 0.796875 -21.421875 Z M 16.71875 -21.421875 "/></g></g><g transform="translate(432.294356, 730.470463)"><g><path d="M 5.75 0 L 3.234375 0 L 3.234375 -21.421875 L 5.75 -21.421875 Z M 5.75 0 "/></g></g><g transform="translate(441.303144, 730.470463)"><g><path d="M 11.75 0.3125 C 9.894531 0.3125 8.242188 -0.0859375 6.796875 -0.890625 C 5.347656 -1.691406 4.207031 -2.914062 3.375 -4.5625 C 2.550781 -6.207031 2.140625 -8.253906 2.140625 -10.703125 C 2.140625 -13.160156 2.550781 -15.210938 3.375 -16.859375 C 4.207031 -18.503906 5.347656 -19.722656 6.796875 -20.515625 C 8.242188 -21.316406 9.894531 -21.71875 11.75 -21.71875 C 13.601562 -21.71875 15.253906 -21.316406 16.703125 -20.515625 C 18.148438 -19.722656 19.285156 -18.503906 20.109375 -16.859375 C 20.941406 -15.210938 21.359375 -13.160156 21.359375 -10.703125 C 21.359375 -8.253906 20.941406 -6.207031 20.109375 -4.5625 C 19.285156 -2.914062 18.148438 -1.691406 16.703125 -0.890625 C 15.253906 -0.0859375 13.601562 0.3125 11.75 0.3125 Z M 11.75 -2.015625 C 13.976562 -2.015625 15.6875 -2.710938 16.875 -4.109375 C 18.0625 -5.503906 18.65625 -7.703125 18.65625 -10.703125 C 18.65625 -13.710938 18.0625 -15.910156 16.875 -17.296875 C 15.6875 -18.691406 13.976562 -19.390625 11.75 -19.390625 C 7.132812 -19.390625 4.828125 -16.492188 4.828125 -10.703125 C 4.828125 -4.910156 7.132812 -2.015625 11.75 -2.015625 Z M 11.75 -2.015625 "/></g></g><g transform="translate(464.799237, 730.470463)"><g><path d="M 5.703125 0 L 3.234375 0 L 3.234375 -21.421875 L 6.328125 -21.421875 L 16.765625 -5.046875 L 17.140625 -5.109375 L 17.140625 -21.421875 L 19.578125 -21.421875 L 19.578125 0 L 16.953125 0 L 6.0625 -17.5 L 5.703125 -17.453125 Z M 5.703125 0 "/></g></g></g><g fill="#000000" fill-opacity="1"><g transform="translate(487.639083, 730.470463)"><g/></g></g></svg>