<svg xmlns="http://www.w3.org/2000/svg" xmlns:xlink="http://www.w3.org/1999/xlink" width="1080" zoomAndPan="magnify" viewBox="0 0 810 809.999993" height="1080" preserveAspectRatio="xMidYMid meet" version="1.0"><defs><g/><clipPath id="0b05d4930f"><path d="M 198.550781 81 L 636.550781 81 L 636.550781 641.25 L 198.550781 641.25 Z M 198.550781 81 " clip-rule="nonzero"/></clipPath></defs><g clip-path="url(#0b05d4930f)"><path fill="#000000" d="M 417.492188 81 C 538.335938 81 636.296875 178.894531 636.296875 299.648438 C 636.296875 420.40625 538.335938 518.296875 417.492188 518.296875 C 296.652344 518.296875 198.691406 420.40625 198.691406 299.648438 C 198.691406 178.894531 296.652344 81 417.492188 81 Z M 581.761719 471.046875 C 551.371094 500.136719 513.261719 521.238281 470.8125 530.96875 L 508.203125 617.71875 L 548.574219 552.714844 L 623.574219 568.0625 Z M 375.59375 533.292969 C 332.71875 525.664062 293.824219 506.542969 262.21875 479.226562 L 211.414062 588.269531 L 286.832031 575.101562 L 325.300781 641.25 Z M 421.195312 222.65625 C 419.910156 219.277344 415.078125 219.277344 413.792969 222.65625 L 394.785156 272.6875 C 394.214844 274.191406 392.882812 275.15625 391.273438 275.238281 L 337.785156 277.839844 C 334.148438 278.019531 332.660156 282.597656 335.496094 284.878906 L 377.238281 318.40625 C 378.492188 319.410156 379 320.976562 378.578125 322.527344 L 364.53125 374.167969 C 363.574219 377.679688 367.472656 380.511719 370.519531 378.515625 L 415.324219 349.207031 C 416.671875 348.324219 418.316406 348.324219 419.660156 349.207031 L 464.46875 378.515625 C 467.515625 380.511719 471.414062 377.679688 470.457031 374.167969 L 456.40625 322.527344 C 455.984375 320.976562 456.492188 319.414062 457.746094 318.40625 L 499.488281 284.878906 C 502.328125 282.597656 500.839844 278.019531 497.203125 277.84375 L 443.714844 275.238281 C 442.105469 275.160156 440.777344 274.191406 440.203125 272.691406 Z M 438.171875 145.054688 C 425.722656 135.742188 409.265625 135.742188 396.816406 145.054688 C 364.40625 169.296875 371.757812 166.625 331.335938 168.871094 C 315.8125 169.734375 303.203125 180.308594 299.65625 195.4375 C 290.421875 234.824219 294.332031 228.054688 264.816406 255.738281 C 253.476562 266.375 250.621094 282.570312 257.632812 296.441406 C 275.898438 332.542969 274.539062 324.847656 269.734375 365.015625 C 267.890625 380.441406 276.121094 394.6875 290.414062 400.804688 C 327.625 416.730469 321.636719 411.707031 343.792969 445.5625 C 352.300781 458.570312 367.769531 464.195312 382.65625 459.699219 C 421.40625 447.996094 413.585938 447.996094 452.335938 459.699219 C 467.21875 464.195312 482.6875 458.566406 491.199219 445.5625 C 513.355469 411.707031 507.363281 416.730469 544.578125 400.804688 C 558.871094 394.6875 567.101562 380.441406 565.253906 365.015625 C 560.449219 324.84375 559.09375 332.542969 577.355469 296.4375 C 584.371094 282.570312 581.511719 266.375 570.175781 255.738281 C 540.65625 228.054688 544.566406 234.824219 535.335938 195.4375 C 531.789062 180.304688 519.179688 169.734375 503.652344 168.871094 C 463.230469 166.625 470.582031 169.296875 438.171875 145.054688 Z M 438.171875 145.054688 " fill-opacity="1" fill-rule="evenodd"/></g><g fill="#000000" fill-opacity="1"><g transform="translate(299.271903, 730.470679)"><g><path d="M 16.890625 -12.734375 L 16.890625 -21.421875 L 19.390625 -21.421875 L 19.390625 0 L 16.890625 0 L 16.890625 -10.59375 L 5.75 -10.59375 L 5.75 0 L 3.234375 0 L 3.234375 -21.421875 L 5.75 -21.421875 L 5.75 -12.734375 Z M 16.890625 -12.734375 "/></g></g><g transform="translate(321.918386, 730.470679)"><g><path d="M 11.75 0.3125 C 9.894531 0.3125 8.242188 -0.0859375 6.796875 -0.890625 C 5.347656 -1.691406 4.207031 -2.914062 3.375 -4.5625 C 2.550781 -6.207031 2.140625 -8.253906 2.140625 -10.703125 C 2.140625 -13.160156 2.550781 -15.210938 3.375 -16.859375 C 4.207031 -18.503906 5.347656 -19.722656 6.796875 -20.515625 C 8.242188 -21.316406 9.894531 -21.71875 11.75 -21.71875 C 13.601562 -21.71875 15.253906 -21.316406 16.703125 -20.515625 C 18.148438 -19.722656 19.285156 -18.503906 20.109375 -16.859375 C 20.941406 -15.210938 21.359375 -13.160156 21.359375 -10.703125 C 21.359375 -8.253906 20.941406 -6.207031 20.109375 -4.5625 C 19.285156 -2.914062 18.148438 -1.691406 16.703125 -0.890625 C 15.253906 -0.0859375 13.601562 0.3125 11.75 0.3125 Z M 11.75 -2.015625 C 13.976562 -2.015625 15.6875 -2.710938 16.875 -4.109375 C 18.0625 -5.503906 18.65625 -7.703125 18.65625 -10.703125 C 18.65625 -13.710938 18.0625 -15.910156 16.875 -17.296875 C 15.6875 -18.691406 13.976562 -19.390625 11.75 -19.390625 C 7.132812 -19.390625 4.828125 -16.492188 4.828125 -10.703125 C 4.828125 -4.910156 7.132812 -2.015625 11.75 -2.015625 Z M 11.75 -2.015625 "/></g></g><g transform="translate(345.414479, 730.470679)"><g><path d="M 11.046875 0.3125 C 8.421875 0.3125 6.429688 -0.351562 5.078125 -1.6875 C 3.734375 -3.019531 3.0625 -5 3.0625 -7.625 L 3.0625 -21.421875 L 5.5625 -21.421875 L 5.5625 -7.640625 C 5.5625 -5.765625 6.015625 -4.359375 6.921875 -3.421875 C 7.828125 -2.484375 9.203125 -2.015625 11.046875 -2.015625 C 14.703125 -2.015625 16.53125 -3.890625 16.53125 -7.640625 L 16.53125 -21.421875 L 19.03125 -21.421875 L 19.03125 -7.625 C 19.03125 -5 18.351562 -3.019531 17 -1.6875 C 15.65625 -0.351562 13.671875 0.3125 11.046875 0.3125 Z M 11.046875 0.3125 "/></g></g><g transform="translate(367.489673, 730.470679)"><g><path d="M 9.359375 0.3125 C 8.015625 0.3125 6.804688 0.128906 5.734375 -0.234375 C 4.660156 -0.609375 3.769531 -1.09375 3.0625 -1.6875 C 2.351562 -2.28125 1.820312 -2.929688 1.46875 -3.640625 L 2.84375 -5.3125 L 3.203125 -5.3125 C 4.535156 -3.082031 6.585938 -1.96875 9.359375 -1.96875 C 10.972656 -1.96875 12.171875 -2.300781 12.953125 -2.96875 C 13.742188 -3.644531 14.140625 -4.582031 14.140625 -5.78125 C 14.140625 -6.488281 14.007812 -7.085938 13.75 -7.578125 C 13.488281 -8.066406 13.0625 -8.484375 12.46875 -8.828125 C 11.875 -9.171875 11.0625 -9.472656 10.03125 -9.734375 L 7.53125 -10.34375 C 5.664062 -10.789062 4.289062 -11.503906 3.40625 -12.484375 C 2.519531 -13.460938 2.078125 -14.707031 2.078125 -16.21875 C 2.078125 -17.28125 2.347656 -18.226562 2.890625 -19.0625 C 3.441406 -19.894531 4.242188 -20.546875 5.296875 -21.015625 C 6.359375 -21.484375 7.617188 -21.71875 9.078125 -21.71875 C 10.691406 -21.71875 12.050781 -21.488281 13.15625 -21.03125 C 14.269531 -20.582031 15.160156 -19.90625 15.828125 -19 L 14.59375 -17.34375 L 14.21875 -17.34375 C 13.601562 -18.09375 12.875 -18.644531 12.03125 -19 C 11.195312 -19.351562 10.210938 -19.53125 9.078125 -19.53125 C 7.597656 -19.53125 6.476562 -19.238281 5.71875 -18.65625 C 4.957031 -18.082031 4.578125 -17.289062 4.578125 -16.28125 C 4.578125 -15.3125 4.851562 -14.539062 5.40625 -13.96875 C 5.96875 -13.394531 6.910156 -12.953125 8.234375 -12.640625 L 10.796875 -12.03125 C 12.878906 -11.539062 14.382812 -10.789062 15.3125 -9.78125 C 16.25 -8.769531 16.71875 -7.476562 16.71875 -5.90625 C 16.71875 -4.695312 16.445312 -3.625 15.90625 -2.6875 C 15.363281 -1.757812 14.539062 -1.023438 13.4375 -0.484375 C 12.332031 0.046875 10.972656 0.3125 9.359375 0.3125 Z M 9.359375 0.3125 "/></g></g><g transform="translate(385.844164, 730.470679)"><g><path d="M 5.75 -10.09375 L 5.75 -2.078125 L 16.671875 -2.078125 L 16.671875 0 L 3.234375 0 L 3.234375 -21.421875 L 16.4375 -21.421875 L 16.4375 -19.34375 L 5.75 -19.34375 L 5.75 -12.171875 L 15.171875 -12.171875 L 15.171875 -10.09375 Z M 5.75 -10.09375 "/></g></g><g transform="translate(403.934983, 730.470679)"><g/></g><g transform="translate(411.288499, 730.470679)"><g><path d="M 9.359375 0 L 6.0625 0 L 1.15625 -21.421875 L 3.640625 -21.421875 L 7.671875 -3.703125 L 8.046875 -3.703125 L 12.84375 -21.421875 L 15.171875 -21.421875 L 19.984375 -3.703125 L 20.34375 -3.703125 L 24.390625 -21.421875 L 26.8125 -21.421875 L 21.921875 0 L 18.609375 0 L 14.140625 -16.21875 L 13.828125 -16.21875 Z M 9.359375 0 "/></g></g><g transform="translate(439.252365, 730.470679)"><g><path d="M 5.75 0 L 3.234375 0 L 3.234375 -21.421875 L 5.75 -21.421875 Z M 5.75 0 "/></g></g><g transform="translate(448.261153, 730.470679)"><g><path d="M 15.828125 -21.421875 L 15.828125 -19.34375 L 5.75 -19.34375 L 5.75 -11.546875 L 14.8125 -11.546875 L 14.8125 -9.453125 L 5.75 -9.453125 L 5.75 0 L 3.234375 0 L 3.234375 -21.421875 Z M 15.828125 -21.421875 "/></g></g><g transform="translate(465.238692, 730.470679)"><g><path d="M 5.75 -10.09375 L 5.75 -2.078125 L 16.671875 -2.078125 L 16.671875 0 L 3.234375 0 L 3.234375 -21.421875 L 16.4375 -21.421875 L 16.4375 -19.34375 L 5.75 -19.34375 L 5.75 -12.171875 L 15.171875 -12.171875 L 15.171875 -10.09375 Z M 5.75 -10.09375 "/></g></g></g></svg>