<svg xmlns="http://www.w3.org/2000/svg" xmlns:xlink="http://www.w3.org/1999/xlink" width="1080" zoomAndPan="magnify" viewBox="0 0 810 809.999993" height="1080" preserveAspectRatio="xMidYMid meet" version="1.0"><defs><g/><clipPath id="f76ef1a13e"><path d="M 182 117 L 681.085938 117 L 681.085938 616.472656 L 182 616.472656 Z M 182 117 " clip-rule="nonzero"/></clipPath></defs><g clip-path="url(#f76ef1a13e)"><path fill="#010101" d="M 494.433594 241.28125 C 451.363281 241.28125 409.800781 255.640625 377.304688 282.84375 L 377.304688 124.90625 C 377.304688 120.375 374.28125 117.351562 369.75 117.351562 L 248.839844 117.351562 C 244.308594 117.351562 241.285156 120.375 241.285156 124.90625 L 241.285156 309.292969 L 189.898438 309.292969 C 186.875 309.292969 184.609375 310.804688 183.097656 313.070312 C 181.585938 315.335938 182.339844 318.359375 183.851562 320.625 L 302.492188 485.363281 C 304.003906 487.628906 306.273438 488.386719 308.539062 488.386719 C 310.804688 488.386719 313.074219 486.875 314.585938 485.363281 L 316.097656 483.851562 C 340.277344 561.6875 412.820312 616.09375 494.433594 616.09375 C 597.207031 616.09375 681.085938 532.214844 681.085938 428.6875 C 681.085938 325.160156 597.207031 241.28125 494.433594 241.28125 Z M 205.011719 324.40625 L 248.839844 324.40625 C 253.375 324.40625 256.398438 321.382812 256.398438 316.847656 L 256.398438 132.464844 L 362.191406 132.464844 L 362.191406 316.847656 C 362.191406 321.382812 365.214844 324.40625 369.75 324.40625 L 413.578125 324.40625 L 313.074219 463.449219 C 313.074219 463.449219 313.074219 463.449219 313.074219 464.203125 L 309.292969 469.496094 Z M 494.433594 600.980469 C 415.84375 600.980469 346.324219 545.816406 327.429688 469.496094 L 433.226562 321.382812 C 434.738281 319.117188 435.492188 316.09375 433.980469 313.824219 C 432.46875 311.558594 430.203125 310.046875 427.179688 310.046875 L 376.550781 310.046875 L 376.550781 304 C 408.289062 273.773438 449.851562 257.148438 493.679688 257.148438 C 588.894531 256.394531 665.972656 333.472656 665.972656 428.6875 C 665.972656 523.902344 588.894531 600.980469 494.433594 600.980469 Z M 494.433594 600.980469 " fill-opacity="1" fill-rule="nonzero"/></g><path fill="#010101" d="M 560.933594 430.199219 C 550.355469 421.132812 532.972656 413.574219 509.546875 408.285156 L 508.792969 408.285156 L 508.792969 351.609375 C 524.660156 353.875 539.019531 359.921875 551.867188 368.988281 L 571.511719 341.03125 C 551.867188 327.429688 530.707031 319.871094 508.792969 318.359375 L 508.792969 303.246094 L 489.144531 303.246094 L 489.144531 318.359375 C 469.496094 319.117188 453.628906 325.160156 441.539062 336.496094 C 429.445312 347.832031 423.402344 362.1875 423.402344 379.570312 C 423.402344 396.949219 428.691406 410.550781 439.269531 418.863281 C 449.851562 427.933594 466.476562 434.734375 489.144531 440.023438 L 489.144531 498.964844 C 471.007812 495.941406 453.628906 487.628906 437.003906 472.515625 L 415.089844 498.964844 C 437.003906 517.859375 461.941406 529.191406 489.902344 532.214844 L 489.902344 554.128906 L 509.546875 554.128906 L 509.546875 532.214844 C 529.953125 531.460938 546.578125 525.414062 559.421875 514.078125 C 572.269531 502.742188 578.316406 488.386719 578.316406 471.003906 C 578.316406 453.625 572.269531 439.265625 560.933594 430.199219 Z M 489.902344 402.996094 C 478.566406 399.214844 471.007812 395.4375 467.230469 391.660156 C 463.453125 387.882812 461.183594 382.59375 461.183594 375.789062 C 461.183594 368.988281 463.453125 363.699219 468.742188 359.167969 C 474.03125 354.632812 480.832031 351.609375 489.902344 350.855469 Z M 532.21875 491.410156 C 526.929688 495.941406 518.617188 498.964844 509.546875 499.722656 L 509.546875 445.3125 C 521.640625 449.089844 529.953125 452.871094 534.484375 456.648438 C 539.019531 460.425781 541.285156 466.472656 541.285156 473.273438 C 540.53125 480.828125 537.507812 486.875 532.21875 491.410156 Z M 532.21875 491.410156 " fill-opacity="1" fill-rule="nonzero"/><path fill="#010101" d="M 612.320312 246.570312 C 647.835938 246.570312 676.550781 217.855469 676.550781 181.582031 C 676.550781 145.3125 648.59375 117.351562 612.320312 117.351562 C 576.046875 117.351562 548.085938 146.066406 548.085938 182.339844 C 548.085938 218.609375 576.804688 246.570312 612.320312 246.570312 Z M 612.320312 132.464844 C 639.523438 132.464844 661.4375 154.378906 661.4375 182.339844 C 661.4375 209.542969 639.523438 232.214844 612.320312 232.214844 C 585.117188 232.214844 563.199219 210.296875 563.199219 182.339844 C 563.199219 154.378906 585.117188 132.464844 612.320312 132.464844 Z M 612.320312 132.464844 " fill-opacity="1" fill-rule="nonzero"/><path fill="#010101" d="M 594.183594 195.941406 L 587.382812 204.253906 C 594.183594 210.296875 601.742188 214.078125 610.808594 214.832031 L 610.808594 221.632812 L 616.855469 221.632812 L 616.855469 214.832031 C 623.65625 214.832031 628.1875 212.566406 632.722656 208.789062 C 636.5 205.007812 638.769531 200.476562 638.769531 195.183594 C 638.769531 189.894531 637.257812 185.359375 633.480469 182.339844 C 629.699219 179.316406 624.410156 177.050781 617.609375 175.539062 L 617.609375 158.15625 C 622.144531 158.914062 626.675781 160.425781 631.210938 163.445312 L 637.257812 154.378906 C 631.210938 149.84375 624.410156 147.578125 617.609375 147.578125 L 617.609375 143.042969 L 611.5625 143.042969 L 611.5625 147.578125 C 605.519531 147.578125 600.230469 149.84375 596.449219 153.621094 C 592.671875 157.402344 590.40625 161.933594 590.40625 167.226562 C 590.40625 172.515625 591.917969 177.050781 595.695312 179.316406 C 598.71875 182.339844 604.007812 184.605469 611.5625 186.117188 L 611.5625 204.253906 C 604.761719 203.496094 599.472656 200.476562 594.183594 195.941406 Z M 616.855469 187.628906 C 620.632812 189.140625 622.898438 189.894531 624.410156 191.40625 C 625.921875 192.917969 626.675781 194.429688 626.675781 196.695312 C 626.675781 198.964844 625.921875 200.476562 623.65625 201.984375 C 622.144531 203.496094 619.121094 204.253906 616.097656 205.007812 L 616.097656 187.628906 Z M 603.25 170.246094 C 601.742188 168.738281 600.984375 167.226562 600.984375 164.957031 C 600.984375 162.691406 601.742188 161.179688 603.25 159.667969 C 604.761719 158.15625 607.03125 157.402344 610.054688 157.402344 L 610.054688 174.027344 C 607.03125 173.269531 604.761719 171.757812 603.25 170.246094 Z M 603.25 170.246094 " fill-opacity="1" fill-rule="nonzero"/><g fill="#000000" fill-opacity="1"><g transform="translate(272.50042, 730.470559)"><g><path d="M 5.75 -21.421875 L 5.75 -2.078125 L 16.0625 -2.078125 L 16.0625 0 L 3.234375 0 L 3.234375 -21.421875 Z M 5.75 -21.421875 "/></g></g><g transform="translate(289.477958, 730.470559)"><g><path d="M 11.75 0.3125 C 9.894531 0.3125 8.242188 -0.0859375 6.796875 -0.890625 C 5.347656 -1.691406 4.207031 -2.914062 3.375 -4.5625 C 2.550781 -6.207031 2.140625 -8.253906 2.140625 -10.703125 C 2.140625 -13.160156 2.550781 -15.210938 3.375 -16.859375 C 4.207031 -18.503906 5.347656 -19.722656 6.796875 -20.515625 C 8.242188 -21.316406 9.894531 -21.71875 11.75 -21.71875 C 13.601562 -21.71875 15.253906 -21.316406 16.703125 -20.515625 C 18.148438 -19.722656 19.285156 -18.503906 20.109375 -16.859375 C 20.941406 -15.210938 21.359375 -13.160156 21.359375 -10.703125 C 21.359375 -8.253906 20.941406 -6.207031 20.109375 -4.5625 C 19.285156 -2.914062 18.148438 -1.691406 16.703125 -0.890625 C 15.253906 -0.0859375 13.601562 0.3125 11.75 0.3125 Z M 11.75 -2.015625 C 13.976562 -2.015625 15.6875 -2.710938 16.875 -4.109375 C 18.0625 -5.503906 18.65625 -7.703125 18.65625 -10.703125 C 18.65625 -13.710938 18.0625 -15.910156 16.875 -17.296875 C 15.6875 -18.691406 13.976562 -19.390625 11.75 -19.390625 C 7.132812 -19.390625 4.828125 -16.492188 4.828125 -10.703125 C 4.828125 -4.910156 7.132812 -2.015625 11.75 -2.015625 Z M 11.75 -2.015625 "/></g></g><g transform="translate(312.974051, 730.470559)"><g><path d="M 9.359375 0.3125 C 8.015625 0.3125 6.804688 0.128906 5.734375 -0.234375 C 4.660156 -0.609375 3.769531 -1.09375 3.0625 -1.6875 C 2.351562 -2.28125 1.820312 -2.929688 1.46875 -3.640625 L 2.84375 -5.3125 L 3.203125 -5.3125 C 4.535156 -3.082031 6.585938 -1.96875 9.359375 -1.96875 C 10.972656 -1.96875 12.171875 -2.300781 12.953125 -2.96875 C 13.742188 -3.644531 14.140625 -4.582031 14.140625 -5.78125 C 14.140625 -6.488281 14.007812 -7.085938 13.75 -7.578125 C 13.488281 -8.066406 13.0625 -8.484375 12.46875 -8.828125 C 11.875 -9.171875 11.0625 -9.472656 10.03125 -9.734375 L 7.53125 -10.34375 C 5.664062 -10.789062 4.289062 -11.503906 3.40625 -12.484375 C 2.519531 -13.460938 2.078125 -14.707031 2.078125 -16.21875 C 2.078125 -17.28125 2.347656 -18.226562 2.890625 -19.0625 C 3.441406 -19.894531 4.242188 -20.546875 5.296875 -21.015625 C 6.359375 -21.484375 7.617188 -21.71875 9.078125 -21.71875 C 10.691406 -21.71875 12.050781 -21.488281 13.15625 -21.03125 C 14.269531 -20.582031 15.160156 -19.90625 15.828125 -19 L 14.59375 -17.34375 L 14.21875 -17.34375 C 13.601562 -18.09375 12.875 -18.644531 12.03125 -19 C 11.195312 -19.351562 10.210938 -19.53125 9.078125 -19.53125 C 7.597656 -19.53125 6.476562 -19.238281 5.71875 -18.65625 C 4.957031 -18.082031 4.578125 -17.289062 4.578125 -16.28125 C 4.578125 -15.3125 4.851562 -14.539062 5.40625 -13.96875 C 5.96875 -13.394531 6.910156 -12.953125 8.234375 -12.640625 L 10.796875 -12.03125 C 12.878906 -11.539062 14.382812 -10.789062 15.3125 -9.78125 C 16.25 -8.769531 16.71875 -7.476562 16.71875 -5.90625 C 16.71875 -4.695312 16.445312 -3.625 15.90625 -2.6875 C 15.363281 -1.757812 14.539062 -1.023438 13.4375 -0.484375 C 12.332031 0.046875 10.972656 0.3125 9.359375 0.3125 Z M 9.359375 0.3125 "/></g></g><g transform="translate(331.328543, 730.470559)"><g><path d="M 5.75 0 L 3.234375 0 L 3.234375 -21.421875 L 5.75 -21.421875 Z M 5.75 0 "/></g></g><g transform="translate(340.337331, 730.470559)"><g><path d="M 5.703125 0 L 3.234375 0 L 3.234375 -21.421875 L 6.328125 -21.421875 L 16.765625 -5.046875 L 17.140625 -5.109375 L 17.140625 -21.421875 L 19.578125 -21.421875 L 19.578125 0 L 16.953125 0 L 6.0625 -17.5 L 5.703125 -17.453125 Z M 5.703125 0 "/></g></g><g transform="translate(363.174244, 730.470559)"><g><path d="M 11.265625 0.3125 C 9.460938 0.3125 7.875 -0.0976562 6.5 -0.921875 C 5.132812 -1.742188 4.066406 -2.976562 3.296875 -4.625 C 2.523438 -6.28125 2.140625 -8.304688 2.140625 -10.703125 C 2.140625 -13.109375 2.550781 -15.132812 3.375 -16.78125 C 4.195312 -18.4375 5.34375 -19.671875 6.8125 -20.484375 C 8.28125 -21.304688 9.96875 -21.71875 11.875 -21.71875 C 13.925781 -21.71875 15.609375 -21.347656 16.921875 -20.609375 C 18.242188 -19.878906 19.179688 -18.78125 19.734375 -17.3125 L 18.09375 -16.34375 L 17.71875 -16.34375 C 17.164062 -17.457031 16.414062 -18.253906 15.46875 -18.734375 C 14.519531 -19.222656 13.320312 -19.46875 11.875 -19.46875 C 7.175781 -19.46875 4.828125 -16.546875 4.828125 -10.703125 C 4.828125 -7.671875 5.414062 -5.457031 6.59375 -4.0625 C 7.78125 -2.664062 9.441406 -1.96875 11.578125 -1.96875 C 13.523438 -1.96875 14.984375 -2.410156 15.953125 -3.296875 C 16.929688 -4.179688 17.421875 -5.582031 17.421875 -7.5 L 17.421875 -9.390625 L 11.328125 -9.390625 L 11.328125 -11.40625 L 19.859375 -11.40625 L 19.859375 0 L 17.53125 0 L 17.53125 -2.875 L 17.234375 -2.9375 C 16.660156 -1.84375 15.867188 -1.023438 14.859375 -0.484375 C 13.847656 0.046875 12.648438 0.3125 11.265625 0.3125 Z M 11.265625 0.3125 "/></g></g><g transform="translate(385.439868, 730.470559)"><g/></g><g transform="translate(392.793383, 730.470559)"><g><path d="M 5.5625 0 L 3.234375 0 L 3.234375 -21.421875 L 6.96875 -21.421875 L 13.46875 -3.28125 L 13.765625 -3.28125 L 20.265625 -21.421875 L 23.859375 -21.421875 L 23.859375 0 L 21.46875 0 L 21.46875 -17.46875 L 21.109375 -17.53125 L 14.78125 0 L 12.28125 0 L 5.9375 -17.53125 L 5.5625 -17.46875 Z M 5.5625 0 "/></g></g><g transform="translate(419.90764, 730.470559)"><g><path d="M 11.75 0.3125 C 9.894531 0.3125 8.242188 -0.0859375 6.796875 -0.890625 C 5.347656 -1.691406 4.207031 -2.914062 3.375 -4.5625 C 2.550781 -6.207031 2.140625 -8.253906 2.140625 -10.703125 C 2.140625 -13.160156 2.550781 -15.210938 3.375 -16.859375 C 4.207031 -18.503906 5.347656 -19.722656 6.796875 -20.515625 C 8.242188 -21.316406 9.894531 -21.71875 11.75 -21.71875 C 13.601562 -21.71875 15.253906 -21.316406 16.703125 -20.515625 C 18.148438 -19.722656 19.285156 -18.503906 20.109375 -16.859375 C 20.941406 -15.210938 21.359375 -13.160156 21.359375 -10.703125 C 21.359375 -8.253906 20.941406 -6.207031 20.109375 -4.5625 C 19.285156 -2.914062 18.148438 -1.691406 16.703125 -0.890625 C 15.253906 -0.0859375 13.601562 0.3125 11.75 0.3125 Z M 11.75 -2.015625 C 13.976562 -2.015625 15.6875 -2.710938 16.875 -4.109375 C 18.0625 -5.503906 18.65625 -7.703125 18.65625 -10.703125 C 18.65625 -13.710938 18.0625 -15.910156 16.875 -17.296875 C 15.6875 -18.691406 13.976562 -19.390625 11.75 -19.390625 C 7.132812 -19.390625 4.828125 -16.492188 4.828125 -10.703125 C 4.828125 -4.910156 7.132812 -2.015625 11.75 -2.015625 Z M 11.75 -2.015625 "/></g></g><g transform="translate(443.403732, 730.470559)"><g><path d="M 5.703125 0 L 3.234375 0 L 3.234375 -21.421875 L 6.328125 -21.421875 L 16.765625 -5.046875 L 17.140625 -5.109375 L 17.140625 -21.421875 L 19.578125 -21.421875 L 19.578125 0 L 16.953125 0 L 6.0625 -17.5 L 5.703125 -17.453125 Z M 5.703125 0 "/></g></g><g transform="translate(466.240645, 730.470559)"><g><path d="M 5.75 -10.09375 L 5.75 -2.078125 L 16.671875 -2.078125 L 16.671875 0 L 3.234375 0 L 3.234375 -21.421875 L 16.4375 -21.421875 L 16.4375 -19.34375 L 5.75 -19.34375 L 5.75 -12.171875 L 15.171875 -12.171875 L 15.171875 -10.09375 Z M 5.75 -10.09375 "/></g></g><g transform="translate(484.331465, 730.470559)"><g><path d="M 10.453125 0 L 7.953125 0 L 7.953125 -8.40625 L 0.5625 -21.421875 L 3.3125 -21.421875 L 9.078125 -11.375 L 9.453125 -11.375 L 15.171875 -21.421875 L 17.875 -21.421875 L 10.453125 -8.40625 Z M 10.453125 0 "/></g></g></g><g fill="#000000" fill-opacity="1"><g transform="translate(502.750409, 730.470559)"><g/></g></g></svg>